{
	"asset":{
		"generator":"Khronos glTF Blender I/O v5.1.19",
		"version":"2.0"
	},
	"scene":0,
	"scenes":[
		{
			"name":"Scene",
			"nodes":[
				0
			]
		}
	],
	"nodes":[
		{
			"mesh":0,
			"name":"dishrack"
		}
	],
	"materials":[
		{
			"name":"restaurant.001",
			"pbrMetallicRoughness":{
				"baseColorTexture":{
					"index":0
				},
				"metallicFactor":0,
				"roughnessFactor":0.5
			}
		}
	],
	"meshes":[
		{
			"name":"Cylinder.153",
			"primitives":[
				{
					"attributes":{
						"POSITION":0,
						"NORMAL":1,
						"TEXCOORD_0":2
					},
					"indices":3,
					"material":0
				}
			]
		}
	],
	"textures":[
		{
			"sampler":0,
			"source":0
		}
	],
	"images":[
		{
			"mimeType":"image/png",
			"name":"restaurantbits_extra",
			"uri":"restaurantbits_extra.png"
		}
	],
	"accessors":[
		{
			"bufferView":0,
			"componentType":5126,
			"count":597,
			"max":[
				0.6000038385391235,
				0.6000000238418579,
				0.6000000238418579
			],
			"min":[
				-0.5999962091445923,
				0,
				-0.6000000238418579
			],
			"type":"VEC3"
		},
		{
			"bufferView":1,
			"componentType":5126,
			"count":597,
			"type":"VEC3"
		},
		{
			"bufferView":2,
			"componentType":5126,
			"count":597,
			"type":"VEC2"
		},
		{
			"bufferView":3,
			"componentType":5123,
			"count":720,
			"type":"SCALAR"
		}
	],
	"bufferViews":[
		{
			"buffer":0,
			"byteLength":7164,
			"byteOffset":0,
			"target":34962
		},
		{
			"buffer":0,
			"byteLength":7164,
			"byteOffset":7164,
			"target":34962
		},
		{
			"buffer":0,
			"byteLength":4776,
			"byteOffset":14328,
			"target":34962
		},
		{
			"buffer":0,
			"byteLength":1440,
			"byteOffset":19104,
			"target":34963
		}
	],
	"samplers":[
		{
			"magFilter":9729,
			"minFilter":9987
		}
	],
	"buffers":[
		{
			"byteLength":20544,
			"uri":"dishrack_flat.bin"
		}
	]
}
