{
	"asset":{
		"generator":"Khronos glTF Blender I/O v5.1.19",
		"version":"2.0"
	},
	"scene":0,
	"scenes":[
		{
			"name":"Scene",
			"nodes":[
				0
			]
		}
	],
	"nodes":[
		{
			"mesh":0,
			"name":"food_ingredient_lettuce"
		}
	],
	"materials":[
		{
			"name":"restaurant.001",
			"pbrMetallicRoughness":{
				"baseColorTexture":{
					"index":0
				},
				"metallicFactor":0,
				"roughnessFactor":0.5
			}
		}
	],
	"meshes":[
		{
			"name":"Icosphere.007",
			"primitives":[
				{
					"attributes":{
						"POSITION":0,
						"NORMAL":1,
						"TEXCOORD_0":2
					},
					"indices":3,
					"material":0
				}
			]
		}
	],
	"textures":[
		{
			"sampler":0,
			"source":0
		}
	],
	"images":[
		{
			"mimeType":"image/png",
			"name":"restaurantbits_extra",
			"uri":"./restaurantbits_extra.png"
		}
	],
	"accessors":[
		{
			"bufferView":0,
			"componentType":5126,
			"count":1370,
			"max":[
				0.5522599220275879,
				0.8103467226028442,
				0.51487135887146
			],
			"min":[
				-0.5522599220275879,
				-0.010169029235839844,
				-0.6185286045074463
			],
			"type":"VEC3"
		},
		{
			"bufferView":1,
			"componentType":5126,
			"count":1370,
			"type":"VEC3"
		},
		{
			"bufferView":2,
			"componentType":5126,
			"count":1370,
			"type":"VEC2"
		},
		{
			"bufferView":3,
			"componentType":5123,
			"count":1386,
			"type":"SCALAR"
		}
	],
	"bufferViews":[
		{
			"buffer":0,
			"byteLength":16440,
			"byteOffset":0,
			"target":34962
		},
		{
			"buffer":0,
			"byteLength":16440,
			"byteOffset":16440,
			"target":34962
		},
		{
			"buffer":0,
			"byteLength":10960,
			"byteOffset":32880,
			"target":34962
		},
		{
			"buffer":0,
			"byteLength":2772,
			"byteOffset":43840,
			"target":34963
		}
	],
	"samplers":[
		{
			"magFilter":9729,
			"minFilter":9987
		}
	],
	"buffers":[
		{
			"byteLength":46612,
			"uri":"food_ingredient_lettuce_flat.bin"
		}
	]
}
