{
	"asset":{
		"generator":"Khronos glTF Blender I/O v5.1.19",
		"version":"2.0"
	},
	"scene":0,
	"scenes":[
		{
			"name":"Scene",
			"nodes":[
				0
			]
		}
	],
	"nodes":[
		{
			"mesh":0,
			"name":"food_ingredient_pepperoni_chopped"
		}
	],
	"materials":[
		{
			"name":"restaurant.003",
			"pbrMetallicRoughness":{
				"baseColorTexture":{
					"index":0
				},
				"metallicFactor":0,
				"roughnessFactor":0.5
			}
		}
	],
	"meshes":[
		{
			"name":"Cylinder.353",
			"primitives":[
				{
					"attributes":{
						"POSITION":0,
						"NORMAL":1,
						"TEXCOORD_0":2
					},
					"indices":3,
					"material":0
				}
			]
		}
	],
	"textures":[
		{
			"sampler":0,
			"source":0
		}
	],
	"images":[
		{
			"mimeType":"image/png",
			"name":"restaurantbits_extra",
			"uri":"../textures/restaurantbits_extra.png"
		}
	],
	"accessors":[
		{
			"bufferView":0,
			"componentType":5126,
			"count":511,
			"max":[
				0.6666057109832764,
				0.3998895287513733,
				0.2101300060749054
			],
			"min":[
				-0.760107159614563,
				-0.004291236400604248,
				-0.23954355716705322
			],
			"type":"VEC3"
		},
		{
			"bufferView":1,
			"componentType":5126,
			"count":511,
			"type":"VEC3"
		},
		{
			"bufferView":2,
			"componentType":5126,
			"count":511,
			"type":"VEC2"
		},
		{
			"bufferView":3,
			"componentType":5123,
			"count":840,
			"type":"SCALAR"
		}
	],
	"bufferViews":[
		{
			"buffer":0,
			"byteLength":6132,
			"byteOffset":0,
			"target":34962
		},
		{
			"buffer":0,
			"byteLength":6132,
			"byteOffset":6132,
			"target":34962
		},
		{
			"buffer":0,
			"byteLength":4088,
			"byteOffset":12264,
			"target":34962
		},
		{
			"buffer":0,
			"byteLength":1680,
			"byteOffset":16352,
			"target":34963
		}
	],
	"samplers":[
		{
			"magFilter":9729,
			"minFilter":9987
		}
	],
	"buffers":[
		{
			"byteLength":18032,
			"uri":"food_ingredient_pepperoni_chopped_flat.bin"
		}
	]
}
