{
	"asset":{
		"generator":"Khronos glTF Blender I/O v5.1.19",
		"version":"2.0"
	},
	"scene":0,
	"scenes":[
		{
			"name":"Scene",
			"nodes":[
				0
			]
		}
	],
	"nodes":[
		{
			"mesh":0,
			"name":"food_ingredient_tomato"
		}
	],
	"materials":[
		{
			"name":"restaurant",
			"pbrMetallicRoughness":{
				"baseColorTexture":{
					"index":0
				},
				"metallicFactor":0,
				"roughnessFactor":0.5
			}
		}
	],
	"meshes":[
		{
			"name":"Sphere.043",
			"primitives":[
				{
					"attributes":{
						"POSITION":0,
						"NORMAL":1,
						"TEXCOORD_0":2
					},
					"indices":3,
					"material":0
				}
			]
		}
	],
	"textures":[
		{
			"sampler":0,
			"source":0
		}
	],
	"images":[
		{
			"mimeType":"image/png",
			"name":"restaurantbits_extra",
			"uri":"restaurantbits_extra.png"
		}
	],
	"accessors":[
		{
			"bufferView":0,
			"componentType":5126,
			"count":1009,
			"max":[
				0.37500008940696716,
				0.6999986171722412,
				0.37500008940696716
			],
			"min":[
				-0.37500008940696716,
				-1.4603137969970703e-06,
				-0.3750000596046448
			],
			"type":"VEC3"
		},
		{
			"bufferView":1,
			"componentType":5126,
			"count":1009,
			"type":"VEC3"
		},
		{
			"bufferView":2,
			"componentType":5126,
			"count":1009,
			"type":"VEC2"
		},
		{
			"bufferView":3,
			"componentType":5123,
			"count":1164,
			"type":"SCALAR"
		}
	],
	"bufferViews":[
		{
			"buffer":0,
			"byteLength":12108,
			"byteOffset":0,
			"target":34962
		},
		{
			"buffer":0,
			"byteLength":12108,
			"byteOffset":12108,
			"target":34962
		},
		{
			"buffer":0,
			"byteLength":8072,
			"byteOffset":24216,
			"target":34962
		},
		{
			"buffer":0,
			"byteLength":2328,
			"byteOffset":32288,
			"target":34963
		}
	],
	"samplers":[
		{
			"magFilter":9729,
			"minFilter":9987
		}
	],
	"buffers":[
		{
			"byteLength":34616,
			"uri":"food_ingredient_tomato_flat.bin"
		}
	]
}
