{
	"asset":{
		"generator":"Khronos glTF Blender I/O v5.1.19",
		"version":"2.0"
	},
	"scene":0,
	"scenes":[
		{
			"name":"Scene",
			"nodes":[
				0
			]
		}
	],
	"nodes":[
		{
			"mesh":0,
			"name":"food_ingredient_ham"
		}
	],
	"materials":[
		{
			"name":"restaurant",
			"pbrMetallicRoughness":{
				"baseColorTexture":{
					"index":0
				},
				"metallicFactor":0,
				"roughnessFactor":0.5
			}
		}
	],
	"meshes":[
		{
			"name":"Cylinder.853",
			"primitives":[
				{
					"attributes":{
						"POSITION":0,
						"NORMAL":1,
						"TEXCOORD_0":2
					},
					"indices":3,
					"material":0
				}
			]
		}
	],
	"textures":[
		{
			"sampler":0,
			"source":0
		}
	],
	"images":[
		{
			"mimeType":"image/png",
			"name":"restaurantbits_extra",
			"uri":"../textures/restaurantbits_extra.png"
		}
	],
	"accessors":[
		{
			"bufferView":0,
			"componentType":5126,
			"count":716,
			"max":[
				0.8953474164009094,
				0.4153684973716736,
				0.4153438210487366
			],
			"min":[
				-0.4957536458969116,
				-0.4146314859390259,
				-0.4146561920642853
			],
			"type":"VEC3"
		},
		{
			"bufferView":1,
			"componentType":5126,
			"count":716,
			"type":"VEC3"
		},
		{
			"bufferView":2,
			"componentType":5126,
			"count":716,
			"type":"VEC2"
		},
		{
			"bufferView":3,
			"componentType":5123,
			"count":816,
			"type":"SCALAR"
		}
	],
	"bufferViews":[
		{
			"buffer":0,
			"byteLength":8592,
			"byteOffset":0,
			"target":34962
		},
		{
			"buffer":0,
			"byteLength":8592,
			"byteOffset":8592,
			"target":34962
		},
		{
			"buffer":0,
			"byteLength":5728,
			"byteOffset":17184,
			"target":34962
		},
		{
			"buffer":0,
			"byteLength":1632,
			"byteOffset":22912,
			"target":34963
		}
	],
	"samplers":[
		{
			"magFilter":9729,
			"minFilter":9987
		}
	],
	"buffers":[
		{
			"byteLength":24544,
			"uri":"food_ingredient_ham_flat.bin"
		}
	]
}
