{
	"asset":{
		"generator":"Khronos glTF Blender I/O v5.1.19",
		"version":"2.0"
	},
	"scene":0,
	"scenes":[
		{
			"name":"Scene",
			"nodes":[
				0
			]
		}
	],
	"nodes":[
		{
			"mesh":0,
			"name":"kitchencounter_straight_B_backsplash_styleB"
		}
	],
	"materials":[
		{
			"name":"restaurant.005",
			"pbrMetallicRoughness":{
				"baseColorTexture":{
					"index":0
				},
				"metallicFactor":0,
				"roughnessFactor":0.5
			}
		}
	],
	"meshes":[
		{
			"name":"Cube.001",
			"primitives":[
				{
					"attributes":{
						"POSITION":0,
						"NORMAL":1,
						"TEXCOORD_0":2
					},
					"indices":3,
					"material":0
				}
			]
		}
	],
	"textures":[
		{
			"sampler":0,
			"source":0
		}
	],
	"images":[
		{
			"mimeType":"image/png",
			"name":"restaurantbits_extra",
			"uri":"restaurantbits_extra.png"
		}
	],
	"accessors":[
		{
			"bufferView":0,
			"componentType":5126,
			"count":353,
			"max":[
				1,
				0.800000011920929,
				1.041903018951416
			],
			"min":[
				-1,
				0,
				-1
			],
			"type":"VEC3"
		},
		{
			"bufferView":1,
			"componentType":5126,
			"count":353,
			"type":"VEC3"
		},
		{
			"bufferView":2,
			"componentType":5126,
			"count":353,
			"type":"VEC2"
		},
		{
			"bufferView":3,
			"componentType":5123,
			"count":444,
			"type":"SCALAR"
		}
	],
	"bufferViews":[
		{
			"buffer":0,
			"byteLength":4236,
			"byteOffset":0,
			"target":34962
		},
		{
			"buffer":0,
			"byteLength":4236,
			"byteOffset":4236,
			"target":34962
		},
		{
			"buffer":0,
			"byteLength":2824,
			"byteOffset":8472,
			"target":34962
		},
		{
			"buffer":0,
			"byteLength":888,
			"byteOffset":11296,
			"target":34963
		}
	],
	"samplers":[
		{
			"magFilter":9729,
			"minFilter":9987
		}
	],
	"buffers":[
		{
			"byteLength":12184,
			"uri":"kitchencounter_straight_B_cab_only_backsplash_styleB_flat.bin"
		}
	]
}
