{
	"asset":{
		"generator":"Khronos glTF Blender I/O v5.1.19",
		"version":"2.0"
	},
	"scene":0,
	"scenes":[
		{
			"name":"Scene",
			"nodes":[
				0,
				1
			]
		}
	],
	"nodes":[
		{
			"mesh":0,
			"name":"Cube",
			"scale":[
				2.9518566131591797,
				2.4260542392730713,
				0.252714067697525
			]
		},
		{
			"mesh":1,
			"name":"Cube.001",
			"scale":[
				0.169065460562706,
				0.169065460562706,
				0.169065460562706
			],
			"translation":[
				-2.088463306427002,
				-0.5011460781097412,
				0.3569204807281494
			]
		}
	],
	"materials":[
		{
			"doubleSided":true,
			"name":"Material.001",
			"pbrMetallicRoughness":{
				"baseColorTexture":{
					"index":0
				},
				"metallicFactor":0,
				"roughnessFactor":0.5
			}
		}
	],
	"meshes":[
		{
			"name":"Mesh",
			"primitives":[
				{
					"attributes":{
						"POSITION":0,
						"NORMAL":1,
						"TEXCOORD_0":2
					},
					"indices":3,
					"material":0
				}
			]
		},
		{
			"name":"Cube.002",
			"primitives":[
				{
					"attributes":{
						"POSITION":4,
						"NORMAL":5,
						"TEXCOORD_0":6
					},
					"indices":7,
					"material":0
				}
			]
		}
	],
	"textures":[
		{
			"sampler":0,
			"source":0
		}
	],
	"images":[
		{
			"mimeType":"image/png",
			"name":"restaurantbits_extra",
			"uri":"../KayKit_Bits_Bundle1_1.1/Restaurant%20Bits/Assets/gltf/restaurantbits_extra.png"
		}
	],
	"accessors":[
		{
			"bufferView":0,
			"componentType":5126,
			"count":2646,
			"max":[
				1.0000001192092896,
				1.0000001192092896,
				1.0000001192092896
			],
			"min":[
				-1.0000001192092896,
				-1.0000001192092896,
				-1.0000001192092896
			],
			"type":"VEC3"
		},
		{
			"bufferView":1,
			"componentType":5126,
			"count":2646,
			"type":"VEC3"
		},
		{
			"bufferView":2,
			"componentType":5126,
			"count":2646,
			"type":"VEC2"
		},
		{
			"bufferView":3,
			"componentType":5123,
			"count":5184,
			"type":"SCALAR"
		},
		{
			"bufferView":4,
			"componentType":5126,
			"count":24,
			"max":[
				1,
				1,
				1
			],
			"min":[
				-1,
				-1,
				-1
			],
			"type":"VEC3"
		},
		{
			"bufferView":5,
			"componentType":5126,
			"count":24,
			"type":"VEC3"
		},
		{
			"bufferView":6,
			"componentType":5126,
			"count":24,
			"type":"VEC2"
		},
		{
			"bufferView":7,
			"componentType":5123,
			"count":36,
			"type":"SCALAR"
		}
	],
	"bufferViews":[
		{
			"buffer":0,
			"byteLength":31752,
			"byteOffset":0,
			"target":34962
		},
		{
			"buffer":0,
			"byteLength":31752,
			"byteOffset":31752,
			"target":34962
		},
		{
			"buffer":0,
			"byteLength":21168,
			"byteOffset":63504,
			"target":34962
		},
		{
			"buffer":0,
			"byteLength":10368,
			"byteOffset":84672,
			"target":34963
		},
		{
			"buffer":0,
			"byteLength":288,
			"byteOffset":95040,
			"target":34962
		},
		{
			"buffer":0,
			"byteLength":288,
			"byteOffset":95328,
			"target":34962
		},
		{
			"buffer":0,
			"byteLength":192,
			"byteOffset":95616,
			"target":34962
		},
		{
			"buffer":0,
			"byteLength":72,
			"byteOffset":95808,
			"target":34963
		}
	],
	"samplers":[
		{
			"magFilter":9729,
			"minFilter":9987
		}
	],
	"buffers":[
		{
			"byteLength":95880,
			"uri":"fridge_door.bin"
		}
	]
}
